<svg width="1600" height="900" viewBox="0 0 1600 900" fill="none" xmlns="http://www.w3.org/2000/svg">
  <rect width="1600" height="900" fill="#F8F8F6"/>
  <rect x="96" y="96" width="1408" height="708" rx="32" fill="#FFFFFF" stroke="#E2E6ED" stroke-width="4"/>
  <rect x="182" y="172" width="280" height="556" rx="28" fill="#EEF3FF" stroke="#D7E3FF" stroke-width="3"/>
  <rect x="222" y="224" width="200" height="200" rx="20" fill="#DCE8FF"/>
  <rect x="222" y="456" width="140" height="24" rx="12" fill="#8A9BB5"/>
  <rect x="222" y="500" width="180" height="18" rx="9" fill="#C1CEE0"/>
  <rect x="222" y="540" width="160" height="18" rx="9" fill="#C1CEE0"/>
  <rect x="520" y="124" width="900" height="90" rx="18" fill="#F6F8FC" stroke="#E2E6ED" stroke-width="3"/>
  <rect x="570" y="156" width="220" height="16" rx="8" fill="#1A2744"/>
  <rect x="1160" y="148" width="190" height="32" rx="16" fill="#2563EB"/>
  <rect x="520" y="254" width="410" height="474" rx="24" fill="#F9FBFF" stroke="#E2E6ED" stroke-width="3"/>
  <rect x="980" y="254" width="440" height="224" rx="24" fill="#F9FBFF" stroke="#E2E6ED" stroke-width="3"/>
  <rect x="980" y="504" width="440" height="224" rx="24" fill="#F9FBFF" stroke="#E2E6ED" stroke-width="3"/>
  <circle cx="720" cy="420" r="118" fill="#2563EB" fill-opacity="0.08" stroke="#2563EB" stroke-width="4"/>
  <path d="M662 420H778" stroke="#2563EB" stroke-width="8" stroke-linecap="round"/>
  <path d="M720 362V478" stroke="#2563EB" stroke-width="8" stroke-linecap="round"/>
  <rect x="1040" y="312" width="260" height="18" rx="9" fill="#1A2744"/>
  <rect x="1040" y="356" width="180" height="18" rx="9" fill="#8A9BB5"/>
  <rect x="1040" y="566" width="240" height="18" rx="9" fill="#1A2744"/>
  <rect x="1040" y="610" width="210" height="18" rx="9" fill="#8A9BB5"/>
  <text x="182" y="132" fill="#1A2744" font-family="Inter, sans-serif" font-size="42" font-weight="600">IBTIDA</text>
  <text x="1240" y="822" fill="#8A9BB5" font-family="DM Mono, monospace" font-size="28" letter-spacing="4">SWIFTUI / FIREBASE / MARKETPLACE</text>
</svg>
